<svg width="90" height="90" viewBox="0 0 90 90" fill="none" xmlns="http://www.w3.org/2000/svg">
<path fill-rule="evenodd" clip-rule="evenodd" d="M27.7493 74.07C27.9508 70.9887 26.9219 67.9058 24.6395 65.6234C22.2246 63.2085 18.9136 62.1968 15.6564 62.561C15.8137 62.3735 15.9805 62.1913 16.1568 62.015L49.1469 29.025C52.4131 25.7587 57.7088 25.7587 60.9751 29.025C64.2413 32.2912 64.2413 37.5869 60.9751 40.8532L27.985 73.8432C27.9076 73.9206 27.829 73.9962 27.7493 74.07Z" fill="#676767"/>
<circle cx="16.3282" cy="73.6718" r="8.3638" transform="rotate(-45 16.3282 73.6718)" fill="#292929"/>
<path fill-rule="evenodd" clip-rule="evenodd" d="M73.07 28.7494C69.9886 28.9508 66.9058 27.9219 64.6234 25.6395C62.2085 23.2246 61.1968 19.9136 61.561 16.6564C61.3735 16.8137 61.1913 16.9805 61.015 17.1568L28.0249 50.1469C24.7587 53.4131 24.7587 58.7088 28.0249 61.9751C31.2912 65.2413 36.5869 65.2413 39.8531 61.9751L72.8432 28.985C72.9206 28.9076 72.9962 28.829 73.07 28.7494Z" fill="#676767"/>
<circle cx="8.3638" cy="8.3638" r="8.3638" transform="matrix(-0.707107 0.707107 0.707107 0.707107 72.6718 5.5)" fill="#6D1E1E"/>
<path fill-rule="evenodd" clip-rule="evenodd" d="M68.0381 82.1149C72.3493 82.1149 75.8443 78.6199 75.8443 74.3087V74.3087C75.8443 69.9974 72.3493 66.5024 68.0381 66.5024L50.9182 66.5024C43.9638 66.5024 38.4412 72.8464 33.3383 77.5712C30.3854 80.3052 26.3766 82.0189 21.9462 82.111C21.9451 82.111 21.9443 82.1118 21.9443 82.1129V82.1129C21.9443 82.114 21.9451 82.1149 21.9462 82.1149L68.0381 82.1149Z" fill="#6D1E1E"/>
<path fill-rule="evenodd" clip-rule="evenodd" d="M74.3574 82.1149C78.6686 82.1149 82.1636 78.6199 82.1636 74.3087V74.3087C82.1636 69.9974 78.6686 66.5024 74.3574 66.5024L57.2375 66.5024C50.2831 66.5024 44.7605 72.8464 39.6576 77.5712C36.7047 80.3052 32.6959 82.0189 28.2655 82.111C28.2644 82.111 28.2635 82.1118 28.2635 82.1129V82.1129C28.2635 82.114 28.2644 82.1149 28.2655 82.1149L74.3574 82.1149Z" fill="#6D1E1E"/>
<path fill-rule="evenodd" clip-rule="evenodd" d="M22.316 7.39825C18.0047 7.39825 14.5098 10.8932 14.5098 15.2045V15.2045C14.5098 19.5157 18.0047 23.0107 22.316 23.0107L39.4358 23.0107C46.3902 23.0107 51.9128 16.6667 57.0157 11.9419C59.9686 9.20787 63.9774 7.49418 68.4079 7.40214C68.409 7.40212 68.4098 7.40126 68.4098 7.4002V7.4002C68.4098 7.39913 68.4089 7.39826 68.4079 7.39826L22.316 7.39825Z" fill="#292929"/>
<path fill-rule="evenodd" clip-rule="evenodd" d="M15.9966 7.39825C11.6854 7.39825 8.19043 10.8932 8.19043 15.2045V15.2045C8.19043 19.5157 11.6854 23.0107 15.9966 23.0107L33.1165 23.0107C40.0708 23.0107 45.5935 16.6667 50.6964 11.9419C53.6493 9.20787 57.6581 7.49418 62.0886 7.40214C62.0896 7.40212 62.0905 7.40126 62.0905 7.4002V7.4002C62.0905 7.39913 62.0896 7.39826 62.0885 7.39826L15.9966 7.39825Z" fill="#292929"/>
<rect x="5" y="5" width="80" height="80" stroke="black" stroke-width="2"/>
<rect x="1" y="1.5" width="88" height="87" stroke="black" stroke-width="2"/>
</svg>
